{
  "accessors": [
    {
      "bufferView": 2,
      "componentType": 5126,
      "count": 12651,
      "max": [
        4.414313793182373,
        5.082431793212891,
        1.750806212425232
      ],
      "min": [
        -4.304471492767334,
        -3.6598169803619385,
        -4.778037071228027
      ],
      "type": "VEC3"
    },
    {
      "bufferView": 2,
      "byteOffset": 151812,
      "componentType": 5126,
      "count": 12651,
      "max": [
        0.9997928738594055,
        0.9999653100967407,
        0.9637595415115356
      ],
      "min": [
        -0.9999597668647766,
        -0.9990790486335754,
        -0.9997451901435852
      ],
      "type": "VEC3"
    },
    {
      "bufferView": 1,
      "componentType": 5126,
      "count": 12651,
      "max": [
        0.9477728605270386,
        0.8439569473266602
      ],
      "min": [
        0.12576031684875488,
        0.00014342504437081516
      ],
      "type": "VEC2"
    },
    {
      "bufferView": 0,
      "componentType": 5125,
      "count": 60096,
      "type": "SCALAR"
    },
    {
      "bufferView": 2,
      "byteOffset": 303624,
      "componentType": 5126,
      "count": 6717,
      "max": [
        4.401127815246582,
        5.235852241516113,
        0.8224639296531677
      ],
      "min": [
        -4.294148921966553,
        -3.31453537940979,
        -4.844261646270752
      ],
      "type": "VEC3"
    },
    {
      "bufferView": 2,
      "byteOffset": 384228,
      "componentType": 5126,
      "count": 6717,
      "max": [
        0.9795544147491455,
        0.9998614192008972,
        0.9999222755432129
      ],
      "min": [
        -0.9671388864517212,
        -0.9990790486335754,
        -0.7584638595581055
      ],
      "type": "VEC3"
    },
    {
      "bufferView": 1,
      "byteOffset": 101208,
      "componentType": 5126,
      "count": 6717,
      "max": [
        0.9477729201316833,
        0.9998566508293152
      ],
      "min": [
        0.00014342505892273039,
        0.00014342504437081516
      ],
      "type": "VEC2"
    },
    {
      "bufferView": 0,
      "byteOffset": 240384,
      "componentType": 5125,
      "count": 31584,
      "type": "SCALAR"
    },
    {
      "bufferView": 2,
      "byteOffset": 464832,
      "componentType": 5126,
      "count": 16120,
      "max": [
        2.2658138275146484,
        4.550228595733643,
        0.9151748418807983
      ],
      "min": [
        -2.0391182899475098,
        -3.091681718826294,
        -3.2169389724731445
      ],
      "type": "VEC3"
    },
    {
      "bufferView": 2,
      "byteOffset": 658272,
      "componentType": 5126,
      "count": 16120,
      "max": [
        0.9999899864196777,
        0.9990940690040588,
        0.9997254610061646
      ],
      "min": [
        -0.9999164342880249,
        -0.9998788237571716,
        -0.8763440847396851
      ],
      "type": "VEC3"
    },
    {
      "bufferView": 1,
      "byteOffset": 154944,
      "componentType": 5126,
      "count": 16120,
      "max": [
        2.3009355068206787,
        1.011637568473816
      ],
      "min": [
        -0.3344874083995819,
        -0.3344874083995819
      ],
      "type": "VEC2"
    },
    {
      "bufferView": 0,
      "byteOffset": 366720,
      "componentType": 5125,
      "count": 85872,
      "type": "SCALAR"
    },
    {
      "bufferView": 2,
      "byteOffset": 851712,
      "componentType": 5126,
      "count": 2232,
      "max": [
        0.8755747079849243,
        -2.5646321773529053,
        0.9512636065483093
      ],
      "min": [
        -0.5784719586372375,
        -3.1205835342407227,
        0.3098141849040985
      ],
      "type": "VEC3"
    },
    {
      "bufferView": 2,
      "byteOffset": 878496,
      "componentType": 5126,
      "count": 2232,
      "max": [
        0.9975209832191467,
        0.9857856631278992,
        0.9999738335609436
      ],
      "min": [
        -0.9962072372436523,
        -0.9996330142021179,
        -0.9965724349021912
      ],
      "type": "VEC3"
    },
    {
      "bufferView": 1,
      "byteOffset": 283904,
      "componentType": 5126,
      "count": 2232,
      "max": [
        0.48617473244667053,
        0.8276836276054382
      ],
      "min": [
        0.42753711342811584,
        0.7859292030334473
      ],
      "type": "VEC2"
    },
    {
      "bufferView": 0,
      "byteOffset": 710208,
      "componentType": 5125,
      "count": 11088,
      "type": "SCALAR"
    }
  ],
  "asset": {
    "extras": {
      "author": "rikelmyso7 (https://sketchfab.com/rikelmyso7)",
      "license": "CC-BY-4.0 (http://creativecommons.org/licenses/by/4.0/)",
      "source": "https://sketchfab.com/3d-models/lapras-dab5e364078c4090a0c3ed7667093f41",
      "title": "Lapras"
    },
    "generator": "Sketchfab-13.46.0",
    "version": "2.0"
  },
  "bufferViews": [
    {
      "buffer": 0,
      "byteLength": 754560,
      "name": "floatBufferViews",
      "target": 34963
    },
    {
      "buffer": 0,
      "byteLength": 301760,
      "byteOffset": 754560,
      "byteStride": 8,
      "name": "floatBufferViews",
      "target": 34962
    },
    {
      "buffer": 0,
      "byteLength": 905280,
      "byteOffset": 1056320,
      "byteStride": 12,
      "name": "floatBufferViews",
      "target": 34962
    }
  ],
  "buffers": [
    {
      "byteLength": 1961600,
      "uri": "scene.bin"
    }
  ],
  "images": [
    {
      "uri": "textures/material_baseColor.png"
    }
  ],
  "materials": [
    {
      "doubleSided": true,
      "name": "Lapras_Body",
      "pbrMetallicRoughness": {
        "baseColorFactor": [
          0.04518560000000001,
          0.3613059999999999,
          0.6375969999999997,
          1.0
        ],
        "metallicFactor": 0.0,
        "roughnessFactor": 0.5592397995879607
      }
    },
    {
      "doubleSided": true,
      "name": "Lapras_Body2",
      "pbrMetallicRoughness": {
        "baseColorFactor": [
          1.0,
          0.734286,
          0.3999999999999998,
          1.0
        ],
        "metallicFactor": 0.0,
        "roughnessFactor": 0.8285737833298782
      }
    },
    {
      "doubleSided": true,
      "name": "Casco",
      "pbrMetallicRoughness": {
        "baseColorFactor": [
          0.171441,
          0.171441,
          0.171441,
          1.0
        ],
        "metallicFactor": 0.0,
        "roughnessFactor": 0.6967609806048933
      }
    },
    {
      "doubleSided": true,
      "name": "material",
      "pbrMetallicRoughness": {
        "baseColorTexture": {
          "index": 0
        },
        "metallicFactor": 0.0
      }
    }
  ],
  "meshes": [
    {
      "name": "Casco_Lapras_Body_0",
      "primitives": [
        {
          "attributes": {
            "NORMAL": 1,
            "POSITION": 0,
            "TEXCOORD_0": 2
          },
          "indices": 3,
          "material": 0,
          "mode": 4
        }
      ]
    },
    {
      "name": "Casco_Lapras_Body2_0",
      "primitives": [
        {
          "attributes": {
            "NORMAL": 5,
            "POSITION": 4,
            "TEXCOORD_0": 6
          },
          "indices": 7,
          "material": 1,
          "mode": 4
        }
      ]
    },
    {
      "name": "Casco_Casco_0",
      "primitives": [
        {
          "attributes": {
            "NORMAL": 9,
            "POSITION": 8,
            "TEXCOORD_0": 10
          },
          "indices": 11,
          "material": 2,
          "mode": 4
        }
      ]
    },
    {
      "name": "Casco_Eye_0",
      "primitives": [
        {
          "attributes": {
            "NORMAL": 13,
            "POSITION": 12,
            "TEXCOORD_0": 14
          },
          "indices": 15,
          "material": 3,
          "mode": 4
        }
      ]
    }
  ],
  "nodes": [
    {
      "children": [
        1
      ],
      "matrix": [
        1.0,
        0.0,
        0.0,
        0.0,
        0.0,
        2.220446049250313e-16,
        -1.0,
        0.0,
        0.0,
        1.0,
        2.220446049250313e-16,
        0.0,
        0.0,
        0.0,
        0.0,
        1.0
      ],
      "name": "Sketchfab_model"
    },
    {
      "children": [
        2
      ],
      "matrix": [
        0.009999999776482582,
        0.0,
        0.0,
        0.0,
        0.0,
        0.0,
        0.009999999776482582,
        0.0,
        0.0,
        -0.009999999776482582,
        0.0,
        0.0,
        0.0,
        0.0,
        0.0,
        1.0
      ],
      "name": "4f2cf1a4b7624ff0b75fa4345365edae.fbx"
    },
    {
      "children": [
        3
      ],
      "name": "RootNode"
    },
    {
      "children": [
        4,
        5,
        6,
        7
      ],
      "matrix": [
        1.625890137336747,
        0.43947048863477756,
        2.6272281024234867,
        0.0,
        2.6511131991077845,
        -0.5662102877586344,
        -1.545958680867749,
        0.0,
        0.2589648361928652,
        3.037310499114716,
        -0.6683305117834267,
        0.0,
        4.869959831237793,
        108.01338195800781,
        -55.91415786743164,
        1.0
      ],
      "name": "Casco"
    },
    {
      "mesh": 0,
      "name": "Casco_Lapras_Body_0"
    },
    {
      "mesh": 1,
      "name": "Casco_Lapras_Body2_0"
    },
    {
      "mesh": 2,
      "name": "Casco_Casco_0"
    },
    {
      "mesh": 3,
      "name": "Casco_Eye_0"
    }
  ],
  "samplers": [
    {
      "magFilter": 9729,
      "minFilter": 9987,
      "wrapS": 10497,
      "wrapT": 10497
    }
  ],
  "scene": 0,
  "scenes": [
    {
      "name": "Sketchfab_Scene",
      "nodes": [
        0
      ]
    }
  ],
  "textures": [
    {
      "sampler": 0,
      "source": 0
    }
  ]
}
