{
  "accessors": [
    {
      "bufferView": 2,
      "componentType": 5126,
      "count": 22474,
      "max": [
        223.9372100830078,
        214.74742126464844,
        335.6955261230469
      ],
      "min": [
        -220.91761779785156,
        -233.74684143066406,
        6.337447643280029
      ],
      "type": "VEC3"
    },
    {
      "bufferView": 2,
      "byteOffset": 269688,
      "componentType": 5126,
      "count": 22474,
      "max": [
        0.9999690055847168,
        0.9999955296516418,
        0.9999973177909851
      ],
      "min": [
        -0.9999690055847168,
        -0.9994553923606873,
        -0.9999989867210388
      ],
      "type": "VEC3"
    },
    {
      "bufferView": 1,
      "componentType": 5126,
      "count": 22474,
      "max": [
        1.0,
        1.0
      ],
      "min": [
        0.0,
        0.0
      ],
      "type": "VEC2"
    },
    {
      "bufferView": 0,
      "componentType": 5125,
      "count": 132018,
      "type": "SCALAR"
    },
    {
      "bufferView": 2,
      "byteOffset": 539376,
      "componentType": 5126,
      "count": 3223,
      "max": [
        132.94081115722656,
        180.43789672851563,
        321.716796875
      ],
      "min": [
        -132.94081115722656,
        -193.25482177734375,
        110.00715637207031
      ],
      "type": "VEC3"
    },
    {
      "bufferView": 2,
      "byteOffset": 578052,
      "componentType": 5126,
      "count": 3223,
      "max": [
        0.9993406534194946,
        0.9989544153213501,
        0.9955841898918152
      ],
      "min": [
        -0.9993403553962708,
        -0.9989544153213501,
        -0.9928706288337708
      ],
      "type": "VEC3"
    },
    {
      "bufferView": 1,
      "byteOffset": 179792,
      "componentType": 5126,
      "count": 3223,
      "max": [
        0.875,
        1.0
      ],
      "min": [
        0.0,
        0.0
      ],
      "type": "VEC2"
    },
    {
      "bufferView": 0,
      "byteOffset": 528072,
      "componentType": 5125,
      "count": 18084,
      "type": "SCALAR"
    },
    {
      "bufferView": 2,
      "byteOffset": 616728,
      "componentType": 5126,
      "count": 16162,
      "max": [
        138.6407012939453,
        203.7655029296875,
        331.94189453125
      ],
      "min": [
        -138.6407012939453,
        -199.5616455078125,
        83.3089828491211
      ],
      "type": "VEC3"
    },
    {
      "bufferView": 2,
      "byteOffset": 810672,
      "componentType": 5126,
      "count": 16162,
      "max": [
        0.9999968409538269,
        0.9994878768920898,
        0.9999868273735046
      ],
      "min": [
        -0.9999969005584717,
        -0.9999518394470215,
        -0.9999999403953552
      ],
      "type": "VEC3"
    },
    {
      "bufferView": 1,
      "byteOffset": 205576,
      "componentType": 5126,
      "count": 16162,
      "max": [
        0.0,
        0.0
      ],
      "min": [
        0.0,
        0.0
      ],
      "type": "VEC2"
    },
    {
      "bufferView": 0,
      "byteOffset": 600408,
      "componentType": 5125,
      "count": 96960,
      "type": "SCALAR"
    },
    {
      "bufferView": 2,
      "byteOffset": 1004616,
      "componentType": 5126,
      "count": 6312,
      "max": [
        218.92544555664063,
        211.290283203125,
        112.10537719726563
      ],
      "min": [
        -216.4886016845703,
        -229.09249877929688,
        6.90308952331543
      ],
      "type": "VEC3"
    },
    {
      "bufferView": 2,
      "byteOffset": 1080360,
      "componentType": 5126,
      "count": 6312,
      "max": [
        0.9985633492469788,
        0.9980689287185669,
        0.9999988675117493
      ],
      "min": [
        -0.9997702240943909,
        -0.9998282194137573,
        -0.999999463558197
      ],
      "type": "VEC3"
    },
    {
      "bufferView": 1,
      "byteOffset": 334872,
      "componentType": 5126,
      "count": 6312,
      "max": [
        1.0,
        1.0
      ],
      "min": [
        0.0,
        0.0
      ],
      "type": "VEC2"
    },
    {
      "bufferView": 0,
      "byteOffset": 988248,
      "componentType": 5125,
      "count": 35058,
      "type": "SCALAR"
    },
    {
      "bufferView": 2,
      "byteOffset": 1156104,
      "componentType": 5126,
      "count": 4042,
      "max": [
        21.613744735717773,
        -69.91219329833984,
        164.54534912109375
      ],
      "min": [
        -42.02942657470703,
        -172.43545532226563,
        105.76931762695313
      ],
      "type": "VEC3"
    },
    {
      "bufferView": 2,
      "byteOffset": 1204608,
      "componentType": 5126,
      "count": 4042,
      "max": [
        0.9999775290489197,
        0.999997615814209,
        0.9999695420265198
      ],
      "min": [
        -0.9999775290489197,
        -0.9979345202445984,
        -0.9999607801437378
      ],
      "type": "VEC3"
    },
    {
      "bufferView": 1,
      "byteOffset": 385368,
      "componentType": 5126,
      "count": 4042,
      "max": [
        0.0,
        0.0
      ],
      "min": [
        0.0,
        0.0
      ],
      "type": "VEC2"
    },
    {
      "bufferView": 0,
      "byteOffset": 1128480,
      "componentType": 5125,
      "count": 24240,
      "type": "SCALAR"
    },
    {
      "bufferView": 2,
      "byteOffset": 1253112,
      "componentType": 5126,
      "count": 1405,
      "max": [
        67.36668395996094,
        -171.34645080566406,
        186.59329223632813
      ],
      "min": [
        -67.3751220703125,
        -195.44886779785156,
        159.10104370117188
      ],
      "type": "VEC3"
    },
    {
      "bufferView": 2,
      "byteOffset": 1269972,
      "componentType": 5126,
      "count": 1405,
      "max": [
        0.9992370009422302,
        0.9965971112251282,
        0.9965012669563293
      ],
      "min": [
        -0.9994819164276123,
        -0.999535322189331,
        -0.9999008774757385
      ],
      "type": "VEC3"
    },
    {
      "bufferView": 1,
      "byteOffset": 417704,
      "componentType": 5126,
      "count": 1405,
      "max": [
        0.0,
        0.0
      ],
      "min": [
        0.0,
        0.0
      ],
      "type": "VEC2"
    },
    {
      "bufferView": 0,
      "byteOffset": 1225440,
      "componentType": 5125,
      "count": 8394,
      "type": "SCALAR"
    }
  ],
  "asset": {
    "extras": {
      "author": "roto (https://sketchfab.com/rotoslinger)",
      "license": "CC-BY-4.0 (http://creativecommons.org/licenses/by/4.0/)",
      "source": "https://sketchfab.com/3d-models/kitty-cat-47a6cb0f2b594e78acccc519ea1b6878",
      "title": "Kitty Cat"
    },
    "generator": "Sketchfab-12.78.0",
    "version": "2.0"
  },
  "bufferViews": [
    {
      "buffer": 0,
      "byteLength": 1259016,
      "name": "floatBufferViews",
      "target": 34963
    },
    {
      "buffer": 0,
      "byteLength": 428944,
      "byteOffset": 1259016,
      "byteStride": 8,
      "name": "floatBufferViews",
      "target": 34962
    },
    {
      "buffer": 0,
      "byteLength": 1286832,
      "byteOffset": 1687960,
      "byteStride": 12,
      "name": "floatBufferViews",
      "target": 34962
    }
  ],
  "buffers": [
    {
      "byteLength": 2974792,
      "uri": "scene.bin"
    }
  ],
  "materials": [
    {
      "emissiveFactor": [
        0.014295695929541991,
        0.014295695929541991,
        0.014295695929541991
      ],
      "name": "lambert10",
      "pbrMetallicRoughness": {
        "baseColorFactor": [
          0.0,
          0.0,
          0.0,
          1.0
        ],
        "metallicFactor": 0.0,
        "roughnessFactor": 0.6
      }
    },
    {
      "name": "Cheek",
      "pbrMetallicRoughness": {
        "baseColorFactor": [
          0.5,
          0.2225,
          0.2225,
          1.0
        ],
        "metallicFactor": 0.0,
        "roughnessFactor": 0.6
      }
    },
    {
      "name": "Skin",
      "pbrMetallicRoughness": {
        "baseColorFactor": [
          0.0636152,
          0.0636152,
          0.0636152,
          1.0
        ],
        "metallicFactor": 0.0,
        "roughnessFactor": 0.6
      }
    },
    {
      "name": "lambert3",
      "pbrMetallicRoughness": {
        "baseColorFactor": [
          0.186967,
          0.186967,
          0.186967,
          1.0
        ],
        "metallicFactor": 0.0,
        "roughnessFactor": 0.6
      }
    },
    {
      "doubleSided": true,
      "name": "lambert1",
      "pbrMetallicRoughness": {
        "baseColorFactor": [
          0.5,
          0.5,
          0.5,
          1.0
        ],
        "metallicFactor": 0.0,
        "roughnessFactor": 0.6
      }
    },
    {
      "name": "FacialFeatures",
      "pbrMetallicRoughness": {
        "baseColorFactor": [
          0.165244,
          0.165244,
          0.165244,
          1.0
        ],
        "metallicFactor": 0.0,
        "roughnessFactor": 0.6
      }
    }
  ],
  "meshes": [
    {
      "name": "AllCatStuff1_pCylinder17_lambert10_0",
      "primitives": [
        {
          "attributes": {
            "NORMAL": 1,
            "POSITION": 0,
            "TEXCOORD_0": 2
          },
          "indices": 3,
          "material": 0,
          "mode": 4
        }
      ]
    },
    {
      "name": "AllCatStuff1_pCylinder17_Cheek_0",
      "primitives": [
        {
          "attributes": {
            "NORMAL": 5,
            "POSITION": 4,
            "TEXCOORD_0": 6
          },
          "indices": 7,
          "material": 1,
          "mode": 4
        }
      ]
    },
    {
      "name": "AllCatStuff1_pCylinder17_Skin_0",
      "primitives": [
        {
          "attributes": {
            "NORMAL": 9,
            "POSITION": 8,
            "TEXCOORD_0": 10
          },
          "indices": 11,
          "material": 2,
          "mode": 4
        }
      ]
    },
    {
      "name": "AllCatStuff1_pCylinder17_lambert3_0",
      "primitives": [
        {
          "attributes": {
            "NORMAL": 13,
            "POSITION": 12,
            "TEXCOORD_0": 14
          },
          "indices": 15,
          "material": 3,
          "mode": 4
        }
      ]
    },
    {
      "name": "AllCatStuff1_pCylinder17_lambert1_0",
      "primitives": [
        {
          "attributes": {
            "NORMAL": 17,
            "POSITION": 16,
            "TEXCOORD_0": 18
          },
          "indices": 19,
          "material": 4,
          "mode": 4
        }
      ]
    },
    {
      "name": "AllCatStuff1_pCylinder17_FacialFeatures_0",
      "primitives": [
        {
          "attributes": {
            "NORMAL": 21,
            "POSITION": 20,
            "TEXCOORD_0": 22
          },
          "indices": 23,
          "material": 5,
          "mode": 4
        }
      ]
    }
  ],
  "nodes": [
    {
      "children": [
        1
      ],
      "matrix": [
        1.0,
        0.0,
        0.0,
        0.0,
        0.0,
        2.220446049250313e-16,
        -1.0,
        0.0,
        0.0,
        1.0,
        2.220446049250313e-16,
        0.0,
        0.0,
        0.0,
        0.0,
        1.0
      ],
      "name": "Sketchfab_model"
    },
    {
      "children": [
        2
      ],
      "matrix": [
        0.009999999776482582,
        0.0,
        0.0,
        0.0,
        0.0,
        0.0,
        0.009999999776482582,
        0.0,
        0.0,
        -0.009999999776482582,
        0.0,
        0.0,
        0.0,
        0.0,
        0.0,
        1.0
      ],
      "name": "2d12cc24fd8548ac835ce9fb45ea93be.fbx"
    },
    {
      "children": [
        3
      ],
      "name": "RootNode"
    },
    {
      "children": [
        4,
        5,
        6,
        7,
        8,
        9
      ],
      "matrix": [
        1.0,
        0.0,
        0.0,
        0.0,
        0.0,
        2.220446049250313e-16,
        -1.0,
        0.0,
        0.0,
        1.0,
        2.220446049250313e-16,
        0.0,
        0.0,
        0.0,
        0.0,
        1.0
      ],
      "name": "AllCatStuff1_pCylinder17"
    },
    {
      "mesh": 0,
      "name": "AllCatStuff1_pCylinder17_lambert10_0"
    },
    {
      "mesh": 1,
      "name": "AllCatStuff1_pCylinder17_Cheek_0"
    },
    {
      "mesh": 2,
      "name": "AllCatStuff1_pCylinder17_Skin_0"
    },
    {
      "mesh": 3,
      "name": "AllCatStuff1_pCylinder17_lambert3_0"
    },
    {
      "mesh": 4,
      "name": "AllCatStuff1_pCylinder17_lambert1_0"
    },
    {
      "mesh": 5,
      "name": "AllCatStuff1_pCylinder17_FacialFeatures_0"
    }
  ],
  "scene": 0,
  "scenes": [
    {
      "name": "Sketchfab_Scene",
      "nodes": [
        0
      ]
    }
  ]
}
